<svg width="65" height="57" viewBox="0 0 65 57" fill="none" xmlns="http://www.w3.org/2000/svg">
<ellipse cx="1.39738" cy="55.6131" rx="1.24136" ry="1.39737" transform="rotate(-90 1.39738 55.6131)" fill="#3758F9"/>
<ellipse cx="1.39738" cy="23.089" rx="1.24136" ry="1.39737" transform="rotate(-90 1.39738 23.089)" fill="#3758F9"/>
<ellipse cx="13.6943" cy="55.6131" rx="1.24136" ry="1.39737" transform="rotate(-90 13.6943 55.6131)" fill="#3758F9"/>
<ellipse cx="13.6943" cy="23.089" rx="1.24136" ry="1.39737" transform="rotate(-90 13.6943 23.089)" fill="#3758F9"/>
<ellipse cx="25.9911" cy="55.6131" rx="1.24136" ry="1.39737" transform="rotate(-90 25.9911 55.6131)" fill="#3758F9"/>
<ellipse cx="25.9911" cy="23.089" rx="1.24136" ry="1.39737" transform="rotate(-90 25.9911 23.089)" fill="#3758F9"/>
<ellipse cx="38.288" cy="55.6131" rx="1.24136" ry="1.39737" transform="rotate(-90 38.288 55.6131)" fill="#3758F9"/>
<ellipse cx="38.288" cy="23.089" rx="1.24136" ry="1.39737" transform="rotate(-90 38.288 23.089)" fill="#3758F9"/>
<ellipse cx="1.39738" cy="44.6889" rx="1.24136" ry="1.39737" transform="rotate(-90 1.39738 44.6889)" fill="#3758F9"/>
<ellipse cx="13.6943" cy="44.6889" rx="1.24136" ry="1.39737" transform="rotate(-90 13.6943 44.6889)" fill="#3758F9"/>
<ellipse cx="25.9911" cy="44.6889" rx="1.24136" ry="1.39737" transform="rotate(-90 25.9911 44.6889)" fill="#3758F9"/>
<ellipse cx="38.288" cy="44.6889" rx="1.24136" ry="1.39737" transform="rotate(-90 38.288 44.6889)" fill="#3758F9"/>
<ellipse cx="1.39738" cy="33.7649" rx="1.24136" ry="1.39737" transform="rotate(-90 1.39738 33.7649)" fill="#3758F9"/>
<ellipse cx="13.6943" cy="33.7649" rx="1.24136" ry="1.39737" transform="rotate(-90 13.6943 33.7649)" fill="#3758F9"/>
<ellipse cx="25.9911" cy="33.7649" rx="1.24136" ry="1.39737" transform="rotate(-90 25.9911 33.7649)" fill="#3758F9"/>
<ellipse cx="38.288" cy="33.7649" rx="1.24136" ry="1.39737" transform="rotate(-90 38.288 33.7649)" fill="#3758F9"/>
</svg>
